<svg width="40" height="40" viewBox="0 0 40 40" fill="none" xmlns="http://www.w3.org/2000/svg">
<path fill-rule="evenodd" clip-rule="evenodd" d="M3.3335 8.14815C3.3335 7.32995 3.98236 6.66667 4.78277 6.66667H35.2176C36.018 6.66667 36.6668 7.32995 36.6668 8.14815C36.6668 8.96635 36.018 9.62963 35.2176 9.62963H4.78277C3.98236 9.62963 3.3335 8.96635 3.3335 8.14815ZM3.3335 20C3.3335 19.1818 3.98236 18.5185 4.78277 18.5185H35.2176C36.018 18.5185 36.6668 19.1818 36.6668 20C36.6668 20.8182 36.018 21.4815 35.2176 21.4815H4.78277C3.98236 21.4815 3.3335 20.8182 3.3335 20ZM3.3335 31.8519C3.3335 31.0337 3.98236 30.3704 4.78277 30.3704H35.2176C36.018 30.3704 36.6668 31.0337 36.6668 31.8519C36.6668 32.6701 36.018 33.3333 35.2176 33.3333H4.78277C3.98236 33.3333 3.3335 32.6701 3.3335 31.8519Z" fill="#515643"/>
</svg>
