<svg width="197" height="33" viewBox="0 0 197 33" fill="none" xmlns="http://www.w3.org/2000/svg">
<path d="M11.712 3.072C10.0694 3.072 8.88537 3.94667 8.16004 5.696C7.45604 7.44533 7.10404 10.1973 7.10404 13.952C7.10404 17.7067 7.45604 20.5013 8.16004 22.336C8.88537 24.1493 10.0694 25.056 11.712 25.056C13.0347 25.056 14.208 24.6293 15.232 23.776C16.2774 22.9013 17.0347 21.9093 17.504 20.8C17.9947 19.6693 18.24 18.6027 18.24 17.6H18.912C18.7627 20.1387 17.9414 22.144 16.448 23.616C14.9547 25.0667 13.184 25.792 11.136 25.792C7.44537 25.792 4.66137 24.736 2.78404 22.624C0.928039 20.4907 3.91006e-05 17.632 3.91006e-05 14.048C3.91006e-05 11.1893 0.864039 8.59733 2.59204 6.272C3.44537 5.14133 4.59737 4.224 6.04804 3.52C7.49871 2.816 9.14137 2.464 10.976 2.464C12.1067 2.464 13.1627 2.656 14.144 3.04C15.1467 3.40267 15.8507 3.584 16.256 3.584C16.6614 3.584 16.9814 3.49867 17.216 3.328C17.472 3.136 17.6747 2.848 17.824 2.464H18.24V11.552H17.824C17.6107 10.8267 17.4614 10.3147 17.376 10.016C17.2907 9.696 17.12 9.17333 16.864 8.448C16.608 7.72267 16.384 7.17867 16.192 6.816C16 6.432 15.7334 5.96267 15.392 5.408C15.0507 4.832 14.72 4.40533 14.4 4.128C13.5467 3.424 12.6507 3.072 11.712 3.072ZM22.6038 10.976H20.3318V10.464H22.2518C24.5771 10.464 26.7105 10.2613 28.6518 9.856V24.672H30.6358V25.184H20.6198V24.672H22.6038V10.976ZM25.6118 8.512C24.7798 8.512 24.0651 8.224 23.4678 7.648C22.8918 7.05067 22.6038 6.336 22.6038 5.504C22.6038 4.65067 22.8918 3.936 23.4678 3.36C24.0651 2.76267 24.7905 2.464 25.6438 2.464C26.4971 2.464 27.2118 2.76267 27.7878 3.36C28.3638 3.936 28.6518 4.65067 28.6518 5.504C28.6518 6.336 28.3531 7.05067 27.7558 7.648C27.1798 8.224 26.4651 8.512 25.6118 8.512ZM39.3943 23.52V25.184H31.3623V24.672H33.3463V3.584H31.0743V3.072H32.9943C35.3196 3.072 37.453 2.86933 39.3943 2.464V12.672H39.5543C39.9596 11.648 40.5143 10.9227 41.2183 10.496C41.9436 10.0693 42.8823 9.856 44.0343 9.856C46.0396 9.856 47.501 10.6027 48.4183 12.096C49.357 13.568 49.8263 15.4667 49.8263 17.792C49.8263 20.1173 49.293 22.0373 48.2263 23.552C47.181 25.0453 45.6556 25.792 43.6503 25.792C41.6663 25.792 40.301 25.0347 39.5543 23.52H39.3943ZM39.2663 17.824V18.688C39.2663 20.5653 39.5116 22.0267 40.0023 23.072C40.493 24.096 41.0583 24.608 41.6983 24.608C42.8076 24.608 43.3623 22.3467 43.3623 17.824C43.3623 15.5627 43.245 13.9093 43.0103 12.864C42.797 11.8187 42.3596 11.296 41.6983 11.296C40.9303 11.296 40.333 11.9787 39.9063 13.344C39.4796 14.688 39.2663 16.1813 39.2663 17.824ZM66.31 23.616C64.7527 25.0667 62.7154 25.792 60.198 25.792C57.6807 25.792 55.6434 25.0667 54.086 23.616C52.5287 22.144 51.75 20.2133 51.75 17.824C51.75 15.4347 52.5287 13.5147 54.086 12.064C55.6434 10.592 57.6807 9.856 60.198 9.856C62.7154 9.856 64.7527 10.592 66.31 12.064C67.8674 13.5147 68.646 15.4347 68.646 17.824C68.646 20.2133 67.8674 22.144 66.31 23.616ZM61.734 23.616C62.0327 22.528 62.182 20.5973 62.182 17.824C62.182 15.0507 62.0327 13.1307 61.734 12.064C61.4567 10.976 60.9447 10.432 60.198 10.432C59.4514 10.432 58.9287 10.976 58.63 12.064C58.3527 13.1307 58.214 15.0507 58.214 17.824C58.214 20.5973 58.3527 22.528 58.63 23.616C58.9287 24.6827 59.4514 25.216 60.198 25.216C60.9447 25.216 61.4567 24.6827 61.734 23.616ZM79.0105 16.128C79.0105 14.1227 79.7252 12.576 81.1545 11.488C82.5839 10.4 84.3225 9.856 86.3705 9.856C87.0319 9.856 87.6825 9.92 88.3225 10.048C87.7892 9.45067 87.5225 8.72533 87.5225 7.872C87.5225 7.01867 87.8105 6.28267 88.3865 5.664C88.9839 5.04533 89.6985 4.736 90.5305 4.736C91.3839 4.736 92.0879 4.98133 92.6425 5.472C93.1972 5.96267 93.4745 6.592 93.4745 7.36C93.4745 8.128 93.2505 8.75733 92.8025 9.248C92.3545 9.71733 91.7892 9.952 91.1065 9.952C90.4452 9.952 89.8905 9.76 89.4425 9.376C89.0159 8.97067 88.8025 8.45867 88.8025 7.84C88.8025 7.22133 89.0159 6.73067 89.4425 6.368C89.7625 6.21867 89.9225 6.048 89.9225 5.856C89.9225 5.664 89.8265 5.568 89.6345 5.568C89.5065 5.568 89.3465 5.632 89.1545 5.76C88.4505 6.29333 88.0985 7.008 88.0985 7.904C88.0985 9.03467 88.7492 9.93067 90.0505 10.592C92.5039 11.6587 93.7305 13.504 93.7305 16.128C93.7305 18.1333 93.0159 19.68 91.5865 20.768C90.1572 21.856 88.4185 22.4 86.3705 22.4C84.9625 22.4 83.7039 22.1547 82.5945 21.664C81.2292 22.24 80.5465 22.8373 80.5465 23.456C80.5465 23.8827 80.7172 24.1707 81.0585 24.32C81.3999 24.448 81.9865 24.512 82.8185 24.512C83.6505 24.512 84.9732 24.2987 86.7865 23.872C88.6212 23.4453 89.8265 23.232 90.4025 23.232C91.6399 23.232 92.6212 23.552 93.3465 24.192C94.0719 24.832 94.4345 25.6747 94.4345 26.72C94.4345 28.3627 93.7412 29.76 92.3545 30.912C90.9679 32.064 89.3039 32.64 87.3625 32.64C85.0585 32.64 83.1812 31.7333 81.7305 29.92C80.6852 29.8347 79.8425 29.44 79.2025 28.736C78.5625 28.032 78.2425 27.1787 78.2425 26.176C78.2425 25.1947 78.5625 24.2667 79.2025 23.392C79.8639 22.5173 80.7812 21.824 81.9545 21.312C79.9919 20.2027 79.0105 18.4747 79.0105 16.128ZM85.6345 21.632C85.8479 21.76 86.0932 21.824 86.3705 21.824C86.6479 21.824 86.8825 21.76 87.0745 21.632C87.2879 21.4827 87.4479 21.2587 87.5545 20.96C87.6825 20.64 87.7785 20.3413 87.8425 20.064C87.9279 19.7653 87.9812 19.3493 88.0025 18.816C88.0239 18.2827 88.0345 17.856 88.0345 17.536C88.0559 17.216 88.0665 16.7467 88.0665 16.128C88.0665 15.5093 88.0559 15.04 88.0345 14.72C88.0345 14.4 88.0239 13.9733 88.0025 13.44C87.9812 12.9067 87.9279 12.5013 87.8425 12.224C87.7785 11.9253 87.6825 11.6267 87.5545 11.328C87.4479 11.008 87.2879 10.784 87.0745 10.656C86.8825 10.5067 86.6479 10.432 86.3705 10.432C86.0932 10.432 85.8479 10.5067 85.6345 10.656C85.4425 10.784 85.2825 11.008 85.1545 11.328C85.0479 11.6267 84.9519 11.9253 84.8665 12.224C84.8025 12.5013 84.7599 12.9067 84.7385 13.44C84.7172 13.9733 84.6959 14.4 84.6745 14.72C84.6745 15.04 84.6745 15.5093 84.6745 16.128C84.6745 16.7467 84.6745 17.216 84.6745 17.536C84.6959 17.856 84.7172 18.2827 84.7385 18.816C84.7599 19.3493 84.8025 19.7653 84.8665 20.064C84.9519 20.3413 85.0479 20.64 85.1545 20.96C85.2825 21.2587 85.4425 21.4827 85.6345 21.632ZM90.2105 28.704C89.6132 28.704 88.3545 28.896 86.4345 29.28C84.5145 29.664 83.2132 29.8773 82.5305 29.92C83.7252 31.3493 85.3359 32.064 87.3625 32.064C88.4719 32.064 89.5065 31.84 90.4665 31.392C91.4479 30.9653 91.9385 30.464 91.9385 29.888C91.9385 29.0987 91.3625 28.704 90.2105 28.704ZM113.058 24.672H115.042V25.184H107.01V22.688H106.85C106.018 24.7787 104.524 25.824 102.37 25.824C100.535 25.824 99.2442 25.2587 98.4975 24.128C97.7509 22.976 97.3775 21.344 97.3775 19.232V10.976H95.1055V10.464H97.0255C99.2655 10.464 101.356 10.2613 103.298 9.856V17.888C103.298 20.0427 103.394 21.6 103.586 22.56C103.778 23.4987 104.204 23.968 104.866 23.968C105.612 23.968 106.178 23.2427 106.562 21.792C106.946 20.32 107.138 18.6453 107.138 16.768V11.008H104.866V10.464H106.786C109.026 10.464 111.116 10.2613 113.058 9.856V24.672ZM140.697 23.968C141.507 23.968 142.03 22.9013 142.265 20.768L142.841 20.832C142.649 22.4107 142.201 23.6373 141.497 24.512C140.793 25.3653 139.747 25.792 138.361 25.792C135.502 25.792 134.073 24.2347 134.073 21.12V10.912H132.409V10.464H133.305C134.819 10.464 136.046 9.97333 136.985 8.992C137.923 7.98933 138.393 6.82667 138.393 5.504C138.393 4.18133 137.859 3.04 136.793 2.08C135.747 1.09867 134.147 0.608 131.993 0.608C129.859 0.608 128.238 1.14133 127.129 2.208C126.019 3.25333 125.465 4.45867 125.465 5.824C125.465 6.48533 125.614 7.11467 125.913 7.712C126.211 8.288 126.521 8.736 126.841 9.056C127.182 9.376 127.641 9.78133 128.217 10.272C128.814 10.7413 129.241 11.0933 129.497 11.328L127.321 10.4L127.353 10.304C125.646 9.04533 124.793 7.584 124.793 5.92C124.793 4.256 125.443 2.85867 126.745 1.728C128.046 0.575998 129.785 -1.90735e-06 131.961 -1.90735e-06C134.627 -1.90735e-06 136.654 0.789331 138.041 2.368C139.427 3.92533 140.121 6.624 140.121 10.464H143.097V10.912H140.121V22.656C140.121 23.5307 140.313 23.968 140.697 23.968ZM129.049 11.584C128.793 11.328 128.334 11.0933 127.673 10.88C127.033 10.6453 126.243 10.528 125.305 10.528C124.366 10.528 123.587 10.7413 122.969 11.168C122.35 11.5733 122.041 12.1173 122.041 12.8C122.041 13.4613 122.35 14.048 122.969 14.56C123.587 15.0507 124.334 15.4987 125.209 15.904C126.083 16.288 126.958 16.7147 127.833 17.184C128.729 17.632 129.486 18.208 130.105 18.912C130.723 19.616 131.033 20.416 131.033 21.312C131.033 22.6773 130.329 23.7653 128.921 24.576C127.534 25.3867 125.443 25.792 122.649 25.792C121.39 25.792 120.11 25.568 118.809 25.12C118.147 24.8853 117.603 24.5227 117.177 24.032C116.771 23.52 116.569 22.8907 116.569 22.144C116.569 21.3973 116.814 20.7573 117.305 20.224C117.795 19.6693 118.425 19.392 119.193 19.392C119.961 19.392 120.579 19.616 121.049 20.064C121.518 20.4907 121.753 21.0453 121.753 21.728C121.753 22.4107 121.55 22.9653 121.145 23.392C120.761 23.7973 120.281 24 119.705 24C119.15 24 118.67 23.7973 118.265 23.392C118.222 23.3493 118.19 23.3173 118.169 23.296C118.147 23.2533 118.126 23.2213 118.105 23.2C118.083 23.1787 118.062 23.1573 118.041 23.136C117.955 23.0933 117.881 23.072 117.817 23.072C117.646 23.072 117.561 23.168 117.561 23.36C117.561 23.552 117.721 23.7867 118.041 24.064C118.382 24.3413 118.937 24.5973 119.705 24.832C120.473 25.0667 121.337 25.184 122.297 25.184C123.278 25.184 124.11 25.024 124.793 24.704C125.497 24.3627 125.849 23.8827 125.849 23.264C125.849 22.624 125.539 22.0373 124.921 21.504C124.302 20.9493 123.545 20.448 122.649 20C121.774 19.5307 120.889 19.0507 119.993 18.56C119.097 18.0693 118.339 17.4827 117.721 16.8C117.102 16.096 116.793 15.3387 116.793 14.528C116.793 13.184 117.411 12.0747 118.649 11.2C119.907 10.3253 121.859 9.888 124.505 9.888C126.467 9.888 127.939 10.2187 128.921 10.88C129.902 11.52 130.393 12.3733 130.393 13.44C130.393 14.2293 130.147 14.9013 129.657 15.456C129.166 15.9893 128.537 16.256 127.769 16.256C127.022 16.256 126.414 16.032 125.945 15.584C125.475 15.136 125.241 14.5813 125.241 13.92C125.241 13.2373 125.433 12.6827 125.817 12.256C126.201 11.8293 126.681 11.616 127.257 11.616C127.854 11.616 128.281 11.776 128.537 12.096C128.814 12.3947 129.017 12.544 129.145 12.544C129.337 12.544 129.433 12.448 129.433 12.256C129.433 12.064 129.305 11.84 129.049 11.584ZM159.06 23.616C157.503 25.0667 155.465 25.792 152.948 25.792C150.431 25.792 148.393 25.0667 146.836 23.616C145.279 22.144 144.5 20.2133 144.5 17.824C144.5 15.4347 145.279 13.5147 146.836 12.064C148.393 10.592 150.431 9.856 152.948 9.856C155.465 9.856 157.503 10.592 159.06 12.064C160.617 13.5147 161.396 15.4347 161.396 17.824C161.396 20.2133 160.617 22.144 159.06 23.616ZM154.484 23.616C154.783 22.528 154.932 20.5973 154.932 17.824C154.932 15.0507 154.783 13.1307 154.484 12.064C154.207 10.976 153.695 10.432 152.948 10.432C152.201 10.432 151.679 10.976 151.38 12.064C151.103 13.1307 150.964 15.0507 150.964 17.824C150.964 20.5973 151.103 22.528 151.38 23.616C151.679 24.6827 152.201 25.216 152.948 25.216C153.695 25.216 154.207 24.6827 154.484 23.616ZM176.049 11.584C175.793 11.328 175.334 11.0933 174.673 10.88C174.033 10.6453 173.243 10.528 172.305 10.528C171.366 10.528 170.587 10.7413 169.969 11.168C169.35 11.5733 169.041 12.1173 169.041 12.8C169.041 13.4613 169.35 14.048 169.969 14.56C170.587 15.0507 171.334 15.4987 172.209 15.904C173.083 16.288 173.958 16.7147 174.833 17.184C175.729 17.632 176.486 18.208 177.105 18.912C177.723 19.616 178.033 20.416 178.033 21.312C178.033 22.6773 177.329 23.7653 175.921 24.576C174.534 25.3867 172.443 25.792 169.649 25.792C168.39 25.792 167.11 25.568 165.809 25.12C165.147 24.8853 164.603 24.5227 164.177 24.032C163.771 23.52 163.569 22.8907 163.569 22.144C163.569 21.3973 163.814 20.7573 164.305 20.224C164.795 19.6693 165.425 19.392 166.193 19.392C166.961 19.392 167.579 19.616 168.049 20.064C168.518 20.4907 168.753 21.0453 168.753 21.728C168.753 22.4107 168.55 22.9653 168.145 23.392C167.761 23.7973 167.281 24 166.705 24C166.15 24 165.67 23.7973 165.265 23.392C165.222 23.3493 165.19 23.3173 165.169 23.296C165.147 23.2533 165.126 23.2213 165.105 23.2C165.083 23.1787 165.062 23.1573 165.041 23.136C164.955 23.0933 164.881 23.072 164.817 23.072C164.646 23.072 164.561 23.168 164.561 23.36C164.561 23.552 164.721 23.7867 165.041 24.064C165.382 24.3413 165.937 24.5973 166.705 24.832C167.473 25.0667 168.337 25.184 169.297 25.184C170.278 25.184 171.11 25.024 171.793 24.704C172.497 24.3627 172.849 23.8827 172.849 23.264C172.849 22.624 172.539 22.0373 171.921 21.504C171.302 20.9493 170.545 20.448 169.649 20C168.774 19.5307 167.889 19.0507 166.993 18.56C166.097 18.0693 165.339 17.4827 164.721 16.8C164.102 16.096 163.793 15.3387 163.793 14.528C163.793 13.184 164.411 12.0747 165.649 11.2C166.907 10.3253 168.859 9.888 171.505 9.888C173.467 9.888 174.939 10.2187 175.921 10.88C176.902 11.52 177.393 12.3733 177.393 13.44C177.393 14.2293 177.147 14.9013 176.657 15.456C176.166 15.9893 175.537 16.256 174.769 16.256C174.022 16.256 173.414 16.032 172.945 15.584C172.475 15.136 172.241 14.5813 172.241 13.92C172.241 13.2373 172.433 12.6827 172.817 12.256C173.201 11.8293 173.681 11.616 174.257 11.616C174.854 11.616 175.281 11.776 175.537 12.096C175.814 12.3947 176.017 12.544 176.145 12.544C176.337 12.544 176.433 12.448 176.433 12.256C176.433 12.064 176.305 11.84 176.049 11.584ZM194.498 23.616C192.94 25.0667 190.903 25.792 188.386 25.792C185.868 25.792 183.831 25.0667 182.274 23.616C180.716 22.144 179.938 20.2133 179.938 17.824C179.938 15.4347 180.716 13.5147 182.274 12.064C183.831 10.592 185.868 9.856 188.386 9.856C190.903 9.856 192.94 10.592 194.498 12.064C196.055 13.5147 196.834 15.4347 196.834 17.824C196.834 20.2133 196.055 22.144 194.498 23.616ZM189.922 23.616C190.22 22.528 190.37 20.5973 190.37 17.824C190.37 15.0507 190.22 13.1307 189.922 12.064C189.644 10.976 189.132 10.432 188.386 10.432C187.639 10.432 187.116 10.976 186.818 12.064C186.54 13.1307 186.402 15.0507 186.402 17.824C186.402 20.5973 186.54 22.528 186.818 23.616C187.116 24.6827 187.639 25.216 188.386 25.216C189.132 25.216 189.644 24.6827 189.922 23.616Z" fill="#515643"/>
</svg>
